<svg xmlns="http://www.w3.org/2000/svg" width="76.131" height="39.896" viewBox="0 0 76.131 39.896">
  <path id="Icon" d="M48.784,5.866l-.015,1.223h4.5L53.25,9.112v.015l20.874.006v.652l.006,2.588-.062.127a10.927,10.927,0,0,1-3.883,4.056,35.868,35.868,0,0,1-6.625,3.49c-5,2.051-10.817,3.459-15.462,3.4a5.862,5.862,0,0,0-5,2.076c-1.053,1.316-1.575,3.373-1.618,5.93l8.13,6.455-.025,5.856H11.459l.012-5.436L19.6,31.469c-.17-6.218-2.187-10.635-5.489-13.606-3.357-3.024-8.062-4.6-13.5-4.991l-.6-.046L0,5.885Zm-1.313,1.3L1.307,7.188l.012,4.5c5.365.479,10.162,2.057,13.665,5.2,2.817,2.539,4.426,6.369,5.223,10.916l4.995.012-.006,1.3-4.741-.012c.083.7.349,1.235.38,1.977l2.758-.009.006,1.3-3.073.012-6.6,5.566L23,37.967a12.053,12.053,0,0,1,7.462-3.577c2.524-.124,5.059,1,7.373,3.212l9.2-.074-6.944-5.5v-.315A10.988,10.988,0,0,1,42.072,24.7a7.1,7.1,0,0,1,5.378-2.44L47.474,8.4h-.025ZM51.95,8.393H48.781L48.756,22a41.673,41.673,0,0,0,14.3-3.16,34.456,34.456,0,0,0,6.381-3.354,9.973,9.973,0,0,0,3.379-3.456V10.437l-19.57-.006V17.1h-1.3V10.431h-.012l.012-1.344v-.7Zm-21.42,27.3a10.89,10.89,0,0,0-6.733,3.33l.006,3.435H37.222l.019-3.707c-2.181-2.215-4.457-3.169-6.712-3.058Zm17.779,3.132-9.76.071-.019,3.561h9.76Zm-35.521.439-.006,3.194H22.5V39.268Z" transform="translate(1.001 -4.866)" fill="#fff" stroke="#fff" stroke-linecap="round" stroke-width="2"/>
</svg>
